<svg xmlns="http://www.w3.org/2000/svg" width="960" height="640" viewBox="0 0 960 640" role="img" aria-labelledby="title desc">
  <title id="title">AUTO · 自动化者</title>
  <desc id="desc">ChuangBTI result figure for 自动化者.</desc>
  <rect width="960" height="640" rx="44" fill="#f8fafc" />
  <path d="M0 518 C180 430 280 634 456 548 C640 458 718 512 960 420 L960 640 L0 640 Z" fill="#1f2933" opacity="0.13" />
  <circle cx="760" cy="126" r="38" fill="#ff206e" opacity="0.16" />
  <circle cx="166" cy="160" r="116" fill="#c6f91f" opacity="0.13" />
  <g transform="translate(0 10)">
    <circle cx="480" cy="300" r="226" fill="#1f2933" opacity="0.055" />
    <circle cx="480" cy="300" r="176" fill="none" stroke="#1f2933" stroke-opacity="0.13" stroke-width="2" />
    <circle cx="480" cy="300" r="112" fill="none" stroke="#1f2933" stroke-opacity="0.13" stroke-width="2" />
    <rect x="474" y="70" width="12" height="42" rx="6" fill="#c6f91f" opacity="1" transform="rotate(-90 480 310)" />
    <rect x="474" y="70" width="12" height="42" rx="6" fill="#c6f91f" opacity="1" transform="rotate(-66 480 310)" />
    <rect x="474" y="70" width="12" height="42" rx="6" fill="#eadde7" opacity="0.35" transform="rotate(-42 480 310)" />
    <rect x="474" y="70" width="12" height="42" rx="6" fill="#c6f91f" opacity="1" transform="rotate(-18 480 310)" />
    <rect x="474" y="70" width="12" height="42" rx="6" fill="#eadde7" opacity="0.65" transform="rotate(6 480 310)" />
    <rect x="474" y="70" width="12" height="42" rx="6" fill="#c6f91f" opacity="1" transform="rotate(30 480 310)" />
    <rect x="474" y="70" width="12" height="42" rx="6" fill="#eadde7" opacity="0.65" transform="rotate(54 480 310)" />
    <rect x="474" y="70" width="12" height="42" rx="6" fill="#eadde7" opacity="0.35" transform="rotate(78 480 310)" />
    <rect x="474" y="70" width="12" height="42" rx="6" fill="#c6f91f" opacity="1" transform="rotate(102 480 310)" />
    <rect x="474" y="70" width="12" height="42" rx="6" fill="#eadde7" opacity="0.65" transform="rotate(126 480 310)" />
    <rect x="474" y="70" width="12" height="42" rx="6" fill="#c6f91f" opacity="1" transform="rotate(150 480 310)" />
    <rect x="474" y="70" width="12" height="42" rx="6" fill="#eadde7" opacity="0.65" transform="rotate(174 480 310)" />
    <rect x="474" y="70" width="12" height="42" rx="6" fill="#eadde7" opacity="0.35" transform="rotate(198 480 310)" />
    <rect x="474" y="70" width="12" height="42" rx="6" fill="#c6f91f" opacity="1" transform="rotate(222 480 310)" />
    <rect x="474" y="70" width="12" height="42" rx="6" fill="#c6f91f" opacity="1" transform="rotate(246 480 310)" />
    <polygon points="481.9,142.9 550.9,155.4 522.3,272.7 642.4,259.3 591.0,322.9 622.9,394.7 545.8,402.8 491.1,365.3 443.4,473.0 411.5,402.1 334.3,391.9 365.7,320.7 426.6,292.0 357.8,197.5 413.0,154.7" fill="#c6f91f" fill-opacity="0.2" stroke="#1f2933" stroke-width="6" stroke-linejoin="round" />
    <polygon points="481.9,142.9 550.9,155.4 522.3,272.7 642.4,259.3 591.0,322.9 622.9,394.7 545.8,402.8 491.1,365.3 443.4,473.0 411.5,402.1 334.3,391.9 365.7,320.7 426.6,292.0 357.8,197.5 413.0,154.7" fill="none" stroke="#ff206e" stroke-width="2" stroke-linejoin="round" opacity="0.7" />
    <circle cx="480" cy="310" r="58" fill="#f8fafc" stroke="#1f2933" stroke-width="4" />
    <text x="480" y="322" text-anchor="middle" font-family="system-ui, -apple-system, BlinkMacSystemFont, 'Segoe UI', sans-serif" font-size="36" font-weight="900" fill="#1f2933">AUTO</text>
  </g>
  <text x="72" y="82" font-family="system-ui, -apple-system, BlinkMacSystemFont, 'Segoe UI', sans-serif" font-size="30" font-weight="800" fill="#1f2933">ChuangBTI</text>
  <text x="72" y="128" font-family="system-ui, -apple-system, BlinkMacSystemFont, 'Segoe UI', sans-serif" font-size="64" font-weight="900" fill="#1f2933">自动化者</text>
  <text x="72" y="170" font-family="system-ui, -apple-system, BlinkMacSystemFont, 'Segoe UI', sans-serif" font-size="24" font-weight="600" fill="#ff206e">只要能自动，我就不手动。</text>
  <g>
    <rect x="100" y="460" width="14" height="105" rx="7" fill="#c6f91f" opacity="0.96" />
    <rect x="125" y="460" width="14" height="105" rx="7" fill="#c6f91f" opacity="0.96" />
    <rect x="150" y="512" width="14" height="53" rx="7" fill="#eadde7" opacity="0.45" />
    <rect x="175" y="460" width="14" height="105" rx="7" fill="#c6f91f" opacity="0.96" />
    <rect x="200" y="486" width="14" height="79" rx="7" fill="#eadde7" opacity="0.7" />
    <rect x="225" y="460" width="14" height="105" rx="7" fill="#c6f91f" opacity="0.96" />
    <rect x="250" y="486" width="14" height="79" rx="7" fill="#eadde7" opacity="0.7" />
    <rect x="275" y="512" width="14" height="53" rx="7" fill="#eadde7" opacity="0.45" />
    <rect x="300" y="460" width="14" height="105" rx="7" fill="#c6f91f" opacity="0.96" />
    <rect x="325" y="486" width="14" height="79" rx="7" fill="#eadde7" opacity="0.7" />
    <rect x="350" y="460" width="14" height="105" rx="7" fill="#c6f91f" opacity="0.96" />
    <rect x="375" y="486" width="14" height="79" rx="7" fill="#eadde7" opacity="0.7" />
    <rect x="400" y="512" width="14" height="53" rx="7" fill="#eadde7" opacity="0.45" />
    <rect x="425" y="460" width="14" height="105" rx="7" fill="#c6f91f" opacity="0.96" />
    <rect x="450" y="460" width="14" height="105" rx="7" fill="#c6f91f" opacity="0.96" />
  </g>
  <text x="72" y="584" font-family="ui-monospace, SFMono-Regular, Menlo, Consolas, monospace" font-size="20" font-weight="700" fill="#1f2933" opacity="0.75">HHL-HMH-MLH-MHM-LHH</text>
  <text x="888" y="584" text-anchor="end" font-family="ui-monospace, SFMono-Regular, Menlo, Consolas, monospace" font-size="20" font-weight="800" fill="#ff206e">35/45 · 高</text>
</svg>
