<svg xmlns="http://www.w3.org/2000/svg" width="960" height="640" viewBox="0 0 960 640" role="img" aria-labelledby="title desc">
  <title id="title">CTRL · AI拿捏者</title>
  <desc id="desc">ChuangBTI result figure for AI拿捏者.</desc>
  <rect width="960" height="640" rx="44" fill="#edf2f4" />
  <path d="M0 518 C180 430 280 634 456 548 C640 458 718 512 960 420 L960 640 L0 640 Z" fill="#2b2d42" opacity="0.13" />
  <circle cx="760" cy="126" r="67" fill="#8d99ae" opacity="0.16" />
  <circle cx="166" cy="160" r="97" fill="#ef233c" opacity="0.13" />
  <g transform="translate(0 10)">
    <circle cx="480" cy="300" r="226" fill="#2b2d42" opacity="0.055" />
    <circle cx="480" cy="300" r="176" fill="none" stroke="#2b2d42" stroke-opacity="0.13" stroke-width="2" />
    <circle cx="480" cy="300" r="112" fill="none" stroke="#2b2d42" stroke-opacity="0.13" stroke-width="2" />
    <rect x="474" y="70" width="12" height="42" rx="6" fill="#ef233c" opacity="1" transform="rotate(-90 480 310)" />
    <rect x="474" y="70" width="12" height="42" rx="6" fill="#ef233c" opacity="1" transform="rotate(-66 480 310)" />
    <rect x="474" y="70" width="12" height="42" rx="6" fill="#d6e2e6" opacity="0.35" transform="rotate(-42 480 310)" />
    <rect x="474" y="70" width="12" height="42" rx="6" fill="#ef233c" opacity="1" transform="rotate(-18 480 310)" />
    <rect x="474" y="70" width="12" height="42" rx="6" fill="#d6e2e6" opacity="0.35" transform="rotate(6 480 310)" />
    <rect x="474" y="70" width="12" height="42" rx="6" fill="#ef233c" opacity="1" transform="rotate(30 480 310)" />
    <rect x="474" y="70" width="12" height="42" rx="6" fill="#d6e2e6" opacity="0.35" transform="rotate(54 480 310)" />
    <rect x="474" y="70" width="12" height="42" rx="6" fill="#d6e2e6" opacity="0.65" transform="rotate(78 480 310)" />
    <rect x="474" y="70" width="12" height="42" rx="6" fill="#d6e2e6" opacity="0.65" transform="rotate(102 480 310)" />
    <rect x="474" y="70" width="12" height="42" rx="6" fill="#ef233c" opacity="1" transform="rotate(126 480 310)" />
    <rect x="474" y="70" width="12" height="42" rx="6" fill="#ef233c" opacity="1" transform="rotate(150 480 310)" />
    <rect x="474" y="70" width="12" height="42" rx="6" fill="#d6e2e6" opacity="0.65" transform="rotate(174 480 310)" />
    <rect x="474" y="70" width="12" height="42" rx="6" fill="#d6e2e6" opacity="0.35" transform="rotate(198 480 310)" />
    <rect x="474" y="70" width="12" height="42" rx="6" fill="#ef233c" opacity="1" transform="rotate(222 480 310)" />
    <rect x="474" y="70" width="12" height="42" rx="6" fill="#ef233c" opacity="1" transform="rotate(246 480 310)" />
    <polygon points="483.3,137.9 551.3,157.8 524.9,271.1 643.7,260.3 537.0,317.1 622.2,395.8 513.4,357.9 501.9,423.7 453.5,423.7 378.6,444.0 331.1,392.2 364.7,319.9 425.8,291.2 358.7,196.5 414.2,154.2" fill="#ef233c" fill-opacity="0.2" stroke="#2b2d42" stroke-width="6" stroke-linejoin="round" />
    <polygon points="483.3,137.9 551.3,157.8 524.9,271.1 643.7,260.3 537.0,317.1 622.2,395.8 513.4,357.9 501.9,423.7 453.5,423.7 378.6,444.0 331.1,392.2 364.7,319.9 425.8,291.2 358.7,196.5 414.2,154.2" fill="none" stroke="#8d99ae" stroke-width="2" stroke-linejoin="round" opacity="0.7" />
    <circle cx="480" cy="310" r="58" fill="#edf2f4" stroke="#2b2d42" stroke-width="4" />
    <text x="480" y="322" text-anchor="middle" font-family="system-ui, -apple-system, BlinkMacSystemFont, 'Segoe UI', sans-serif" font-size="36" font-weight="900" fill="#2b2d42">CTRL</text>
  </g>
  <text x="72" y="82" font-family="system-ui, -apple-system, BlinkMacSystemFont, 'Segoe UI', sans-serif" font-size="30" font-weight="800" fill="#2b2d42">ChuangBTI</text>
  <text x="72" y="128" font-family="system-ui, -apple-system, BlinkMacSystemFont, 'Segoe UI', sans-serif" font-size="64" font-weight="900" fill="#2b2d42">AI拿捏者</text>
  <text x="72" y="170" font-family="system-ui, -apple-system, BlinkMacSystemFont, 'Segoe UI', sans-serif" font-size="24" font-weight="600" fill="#8d99ae">AI只是工具，关键是我怎么调教它。</text>
  <g>
    <rect x="100" y="460" width="14" height="105" rx="7" fill="#ef233c" opacity="0.96" />
    <rect x="125" y="460" width="14" height="105" rx="7" fill="#ef233c" opacity="0.96" />
    <rect x="150" y="512" width="14" height="53" rx="7" fill="#d6e2e6" opacity="0.45" />
    <rect x="175" y="460" width="14" height="105" rx="7" fill="#ef233c" opacity="0.96" />
    <rect x="200" y="512" width="14" height="53" rx="7" fill="#d6e2e6" opacity="0.45" />
    <rect x="225" y="460" width="14" height="105" rx="7" fill="#ef233c" opacity="0.96" />
    <rect x="250" y="512" width="14" height="53" rx="7" fill="#d6e2e6" opacity="0.45" />
    <rect x="275" y="486" width="14" height="79" rx="7" fill="#d6e2e6" opacity="0.7" />
    <rect x="300" y="486" width="14" height="79" rx="7" fill="#d6e2e6" opacity="0.7" />
    <rect x="325" y="460" width="14" height="105" rx="7" fill="#ef233c" opacity="0.96" />
    <rect x="350" y="460" width="14" height="105" rx="7" fill="#ef233c" opacity="0.96" />
    <rect x="375" y="486" width="14" height="79" rx="7" fill="#d6e2e6" opacity="0.7" />
    <rect x="400" y="512" width="14" height="53" rx="7" fill="#d6e2e6" opacity="0.45" />
    <rect x="425" y="460" width="14" height="105" rx="7" fill="#ef233c" opacity="0.96" />
    <rect x="450" y="460" width="14" height="105" rx="7" fill="#ef233c" opacity="0.96" />
  </g>
  <text x="72" y="584" font-family="ui-monospace, SFMono-Regular, Menlo, Consolas, monospace" font-size="20" font-weight="700" fill="#2b2d42" opacity="0.75">HHL-HLH-LMM-HHM-LHH</text>
  <text x="888" y="584" text-anchor="end" font-family="ui-monospace, SFMono-Regular, Menlo, Consolas, monospace" font-size="20" font-weight="800" fill="#8d99ae">34/45 · 高</text>
</svg>
