<svg xmlns="http://www.w3.org/2000/svg" width="960" height="640" viewBox="0 0 960 640" role="img" aria-labelledby="title desc">
  <title id="title">FLEX · 变色龙</title>
  <desc id="desc">ChuangBTI result figure for 变色龙.</desc>
  <rect width="960" height="640" rx="44" fill="#fff8e7" />
  <path d="M0 518 C180 430 280 634 456 548 C640 458 718 512 960 420 L960 640 L0 640 Z" fill="#264653" opacity="0.13" />
  <circle cx="760" cy="126" r="54" fill="#e9c46a" opacity="0.16" />
  <circle cx="166" cy="160" r="104" fill="#2a9d8f" opacity="0.13" />
  <g transform="translate(0 10)">
    <circle cx="480" cy="300" r="226" fill="#264653" opacity="0.055" />
    <circle cx="480" cy="300" r="176" fill="none" stroke="#264653" stroke-opacity="0.13" stroke-width="2" />
    <circle cx="480" cy="300" r="112" fill="none" stroke="#264653" stroke-opacity="0.13" stroke-width="2" />
    <rect x="474" y="70" width="12" height="42" rx="6" fill="#eadde7" opacity="0.65" transform="rotate(-90 480 310)" />
    <rect x="474" y="70" width="12" height="42" rx="6" fill="#eadde7" opacity="0.65" transform="rotate(-66 480 310)" />
    <rect x="474" y="70" width="12" height="42" rx="6" fill="#2a9d8f" opacity="1" transform="rotate(-42 480 310)" />
    <rect x="474" y="70" width="12" height="42" rx="6" fill="#eadde7" opacity="0.65" transform="rotate(-18 480 310)" />
    <rect x="474" y="70" width="12" height="42" rx="6" fill="#eadde7" opacity="0.65" transform="rotate(6 480 310)" />
    <rect x="474" y="70" width="12" height="42" rx="6" fill="#eadde7" opacity="0.65" transform="rotate(30 480 310)" />
    <rect x="474" y="70" width="12" height="42" rx="6" fill="#2a9d8f" opacity="1" transform="rotate(54 480 310)" />
    <rect x="474" y="70" width="12" height="42" rx="6" fill="#eadde7" opacity="0.65" transform="rotate(78 480 310)" />
    <rect x="474" y="70" width="12" height="42" rx="6" fill="#eadde7" opacity="0.35" transform="rotate(102 480 310)" />
    <rect x="474" y="70" width="12" height="42" rx="6" fill="#eadde7" opacity="0.35" transform="rotate(126 480 310)" />
    <rect x="474" y="70" width="12" height="42" rx="6" fill="#eadde7" opacity="0.65" transform="rotate(150 480 310)" />
    <rect x="474" y="70" width="12" height="42" rx="6" fill="#eadde7" opacity="0.65" transform="rotate(174 480 310)" />
    <rect x="474" y="70" width="12" height="42" rx="6" fill="#eadde7" opacity="0.65" transform="rotate(198 480 310)" />
    <rect x="474" y="70" width="12" height="42" rx="6" fill="#eadde7" opacity="0.65" transform="rotate(222 480 310)" />
    <rect x="474" y="70" width="12" height="42" rx="6" fill="#eadde7" opacity="0.35" transform="rotate(246 480 310)" />
    <polygon points="481.7,194.3 527.4,207.7 605.0,200.7 584.9,277.6 592.9,323.5 576.0,367.3 575.7,445.8 501.2,417.7 466.6,368.9 445.6,355.9 383.3,364.0 370.7,319.9 372.3,273.3 398.1,234.0 458.2,259.1" fill="#2a9d8f" fill-opacity="0.2" stroke="#264653" stroke-width="6" stroke-linejoin="round" />
    <polygon points="481.7,194.3 527.4,207.7 605.0,200.7 584.9,277.6 592.9,323.5 576.0,367.3 575.7,445.8 501.2,417.7 466.6,368.9 445.6,355.9 383.3,364.0 370.7,319.9 372.3,273.3 398.1,234.0 458.2,259.1" fill="none" stroke="#e9c46a" stroke-width="2" stroke-linejoin="round" opacity="0.7" />
    <circle cx="480" cy="310" r="58" fill="#fff8e7" stroke="#264653" stroke-width="4" />
    <text x="480" y="322" text-anchor="middle" font-family="system-ui, -apple-system, BlinkMacSystemFont, 'Segoe UI', sans-serif" font-size="36" font-weight="900" fill="#264653">FLEX</text>
  </g>
  <text x="72" y="82" font-family="system-ui, -apple-system, BlinkMacSystemFont, 'Segoe UI', sans-serif" font-size="30" font-weight="800" fill="#264653">ChuangBTI</text>
  <text x="72" y="128" font-family="system-ui, -apple-system, BlinkMacSystemFont, 'Segoe UI', sans-serif" font-size="64" font-weight="900" fill="#264653">变色龙</text>
  <text x="72" y="170" font-family="system-ui, -apple-system, BlinkMacSystemFont, 'Segoe UI', sans-serif" font-size="24" font-weight="600" fill="#e9c46a">原则是有的，但可以调整。</text>
  <g>
    <rect x="100" y="486" width="14" height="79" rx="7" fill="#eadde7" opacity="0.7" />
    <rect x="125" y="486" width="14" height="79" rx="7" fill="#eadde7" opacity="0.7" />
    <rect x="150" y="460" width="14" height="105" rx="7" fill="#2a9d8f" opacity="0.96" />
    <rect x="175" y="486" width="14" height="79" rx="7" fill="#eadde7" opacity="0.7" />
    <rect x="200" y="486" width="14" height="79" rx="7" fill="#eadde7" opacity="0.7" />
    <rect x="225" y="486" width="14" height="79" rx="7" fill="#eadde7" opacity="0.7" />
    <rect x="250" y="460" width="14" height="105" rx="7" fill="#2a9d8f" opacity="0.96" />
    <rect x="275" y="486" width="14" height="79" rx="7" fill="#eadde7" opacity="0.7" />
    <rect x="300" y="512" width="14" height="53" rx="7" fill="#eadde7" opacity="0.45" />
    <rect x="325" y="512" width="14" height="53" rx="7" fill="#eadde7" opacity="0.45" />
    <rect x="350" y="486" width="14" height="79" rx="7" fill="#eadde7" opacity="0.7" />
    <rect x="375" y="486" width="14" height="79" rx="7" fill="#eadde7" opacity="0.7" />
    <rect x="400" y="486" width="14" height="79" rx="7" fill="#eadde7" opacity="0.7" />
    <rect x="425" y="486" width="14" height="79" rx="7" fill="#eadde7" opacity="0.7" />
    <rect x="450" y="512" width="14" height="53" rx="7" fill="#eadde7" opacity="0.45" />
  </g>
  <text x="72" y="584" font-family="ui-monospace, SFMono-Regular, Menlo, Consolas, monospace" font-size="20" font-weight="700" fill="#264653" opacity="0.75">MMH-MMM-HML-LMM-MML</text>
  <text x="888" y="584" text-anchor="end" font-family="ui-monospace, SFMono-Regular, Menlo, Consolas, monospace" font-size="20" font-weight="800" fill="#e9c46a">29/45 · 中</text>
</svg>
