<svg xmlns="http://www.w3.org/2000/svg" width="960" height="640" viewBox="0 0 960 640" role="img" aria-labelledby="title desc">
  <title id="title">WAIT · 等风者</title>
  <desc id="desc">ChuangBTI result figure for 等风者.</desc>
  <rect width="960" height="640" rx="44" fill="#f5f3f5" />
  <path d="M0 518 C180 430 280 634 456 548 C640 458 718 512 960 420 L960 640 L0 640 Z" fill="#2d3047" opacity="0.13" />
  <circle cx="760" cy="126" r="85" fill="#e0ca3c" opacity="0.16" />
  <circle cx="166" cy="160" r="107" fill="#93b7be" opacity="0.13" />
  <g transform="translate(0 10)">
    <circle cx="480" cy="300" r="226" fill="#2d3047" opacity="0.055" />
    <circle cx="480" cy="300" r="176" fill="none" stroke="#2d3047" stroke-opacity="0.13" stroke-width="2" />
    <circle cx="480" cy="300" r="112" fill="none" stroke="#2d3047" stroke-opacity="0.13" stroke-width="2" />
    <rect x="474" y="70" width="12" height="42" rx="6" fill="#d6e2e6" opacity="0.65" transform="rotate(-90 480 310)" />
    <rect x="474" y="70" width="12" height="42" rx="6" fill="#d6e2e6" opacity="0.35" transform="rotate(-66 480 310)" />
    <rect x="474" y="70" width="12" height="42" rx="6" fill="#93b7be" opacity="1" transform="rotate(-42 480 310)" />
    <rect x="474" y="70" width="12" height="42" rx="6" fill="#d6e2e6" opacity="0.35" transform="rotate(-18 480 310)" />
    <rect x="474" y="70" width="12" height="42" rx="6" fill="#93b7be" opacity="1" transform="rotate(6 480 310)" />
    <rect x="474" y="70" width="12" height="42" rx="6" fill="#d6e2e6" opacity="0.35" transform="rotate(30 480 310)" />
    <rect x="474" y="70" width="12" height="42" rx="6" fill="#93b7be" opacity="1" transform="rotate(54 480 310)" />
    <rect x="474" y="70" width="12" height="42" rx="6" fill="#d6e2e6" opacity="0.35" transform="rotate(78 480 310)" />
    <rect x="474" y="70" width="12" height="42" rx="6" fill="#93b7be" opacity="1" transform="rotate(102 480 310)" />
    <rect x="474" y="70" width="12" height="42" rx="6" fill="#d6e2e6" opacity="0.65" transform="rotate(126 480 310)" />
    <rect x="474" y="70" width="12" height="42" rx="6" fill="#d6e2e6" opacity="0.35" transform="rotate(150 480 310)" />
    <rect x="474" y="70" width="12" height="42" rx="6" fill="#d6e2e6" opacity="0.65" transform="rotate(174 480 310)" />
    <rect x="474" y="70" width="12" height="42" rx="6" fill="#d6e2e6" opacity="0.65" transform="rotate(198 480 310)" />
    <rect x="474" y="70" width="12" height="42" rx="6" fill="#d6e2e6" opacity="0.35" transform="rotate(222 480 310)" />
    <rect x="474" y="70" width="12" height="42" rx="6" fill="#93b7be" opacity="1" transform="rotate(246 480 310)" />
    <polygon points="483.6,199.3 505.5,257.4 610.8,199.7 539.0,292.9 646.5,333.0 530.5,341.4 576.0,451.6 490.8,370.4 440.2,471.3 410.2,399.8 426.7,338.5 363.6,318.4 374.0,271.7 437.2,268.8 415.5,151.5" fill="#93b7be" fill-opacity="0.2" stroke="#2d3047" stroke-width="6" stroke-linejoin="round" />
    <polygon points="483.6,199.3 505.5,257.4 610.8,199.7 539.0,292.9 646.5,333.0 530.5,341.4 576.0,451.6 490.8,370.4 440.2,471.3 410.2,399.8 426.7,338.5 363.6,318.4 374.0,271.7 437.2,268.8 415.5,151.5" fill="none" stroke="#e0ca3c" stroke-width="2" stroke-linejoin="round" opacity="0.7" />
    <circle cx="480" cy="310" r="58" fill="#f5f3f5" stroke="#2d3047" stroke-width="4" />
    <text x="480" y="322" text-anchor="middle" font-family="system-ui, -apple-system, BlinkMacSystemFont, 'Segoe UI', sans-serif" font-size="36" font-weight="900" fill="#2d3047">WAIT</text>
  </g>
  <text x="72" y="82" font-family="system-ui, -apple-system, BlinkMacSystemFont, 'Segoe UI', sans-serif" font-size="30" font-weight="800" fill="#2d3047">ChuangBTI</text>
  <text x="72" y="128" font-family="system-ui, -apple-system, BlinkMacSystemFont, 'Segoe UI', sans-serif" font-size="64" font-weight="900" fill="#2d3047">等风者</text>
  <text x="72" y="170" font-family="system-ui, -apple-system, BlinkMacSystemFont, 'Segoe UI', sans-serif" font-size="24" font-weight="600" fill="#e0ca3c">再等等，现在还不是最佳时机。</text>
  <g>
    <rect x="100" y="486" width="14" height="79" rx="7" fill="#d6e2e6" opacity="0.7" />
    <rect x="125" y="512" width="14" height="53" rx="7" fill="#d6e2e6" opacity="0.45" />
    <rect x="150" y="460" width="14" height="105" rx="7" fill="#93b7be" opacity="0.96" />
    <rect x="175" y="512" width="14" height="53" rx="7" fill="#d6e2e6" opacity="0.45" />
    <rect x="200" y="460" width="14" height="105" rx="7" fill="#93b7be" opacity="0.96" />
    <rect x="225" y="512" width="14" height="53" rx="7" fill="#d6e2e6" opacity="0.45" />
    <rect x="250" y="460" width="14" height="105" rx="7" fill="#93b7be" opacity="0.96" />
    <rect x="275" y="512" width="14" height="53" rx="7" fill="#d6e2e6" opacity="0.45" />
    <rect x="300" y="460" width="14" height="105" rx="7" fill="#93b7be" opacity="0.96" />
    <rect x="325" y="486" width="14" height="79" rx="7" fill="#d6e2e6" opacity="0.7" />
    <rect x="350" y="512" width="14" height="53" rx="7" fill="#d6e2e6" opacity="0.45" />
    <rect x="375" y="486" width="14" height="79" rx="7" fill="#d6e2e6" opacity="0.7" />
    <rect x="400" y="486" width="14" height="79" rx="7" fill="#d6e2e6" opacity="0.7" />
    <rect x="425" y="512" width="14" height="53" rx="7" fill="#d6e2e6" opacity="0.45" />
    <rect x="450" y="460" width="14" height="105" rx="7" fill="#93b7be" opacity="0.96" />
  </g>
  <text x="72" y="584" font-family="ui-monospace, SFMono-Regular, Menlo, Consolas, monospace" font-size="20" font-weight="700" fill="#2d3047" opacity="0.75">MLH-LHL-HLH-MLM-MLH</text>
  <text x="888" y="584" text-anchor="end" font-family="ui-monospace, SFMono-Regular, Menlo, Consolas, monospace" font-size="20" font-weight="800" fill="#e0ca3c">29/45 · 中</text>
</svg>
